<?xml version="1.0" encoding="utf-8"?>
<svg xmlns="http://www.w3.org/2000/svg" viewBox="198.6356 128.4664 92.2519 175.701" width="92.2519px" height="175.701px"><path style="stroke-width: 0.350617mm; stroke: rgb(1, 102, 177); fill: rgb(1, 102, 177); transform-origin: 244.761497px 216.316948px;" d="M 158.482 184.915 L 158.484 199.639 L 189.631 226.235 C 207.375 241.386 221.075 252.982 221.466 253.183 C 222.277 253.598 224.03 253.746 224.98 253.479 C 225.308 253.388 249.095 240.429 277.841 224.683 L 330.106 196.054 L 330.143 189.611 L 330.18 183.168 L 331.396 183.168 L 332.612 183.168 L 332.53 190.263 C 332.485 194.165 332.414 197.751 332.373 198.233 L 332.297 199.109 L 280.447 230.303 C 251.929 247.46 228.238 261.643 227.799 261.82 C 226.556 262.325 225.376 262.502 223.757 262.426 C 221.2 262.306 219.592 261.557 217.237 259.391 C 216.47 258.685 202.582 245.375 186.376 229.813 L 156.911 201.519 L 156.911 185.855 L 156.911 170.191 L 157.695 170.191 L 158.48 170.191 L 158.482 184.915 Z" id="object-0" transform="matrix(0, 1, -1, 0, -0.000015258789, -0.000015258789)"/></svg>