<svg xmlns="http://www.w3.org/2000/svg" viewBox="0 0 48 48" id="battery">
  <path d="M47 11h-4V7c0-.6-.4-1-1-1h-7c-.6 0-1 .4-1 1v4H14V7c0-.6-.4-1-1-1H6c-.6 0-1 .4-1 1v4H1c-.6 0-1 .4-1 1v5c0 .6.4 1 1 1h1v23c0 .6.4 1 1 1h42c.6 0 1-.4 1-1V18h1c.6 0 1-.4 1-1v-5c0-.6-.4-1-1-1zM36 8h5v3h-5V8zM7 8h5v3H7V8zm37 32H4V18h40v22zm2-24H2v-3h44v3z"></path>
  <path d="M20.3 36.8c.4.4 1.1.3 1.4-.1l6-7c.6-.7.2-1.7-.7-1.7h-3.8l4.6-5.3c.4-.4.3-1-.1-1.4-.4-.4-1-.3-1.4.1l-6 7c-.3.3-.3.7-.1 1.1s.4.5.8.5h3.8l-4.6 5.3c-.3.5-.3 1.1.1 1.5zM8 30h3v3c0 .6.4 1 1 1s1-.4 1-1v-3h3c.6 0 1-.4 1-1s-.4-1-1-1h-3v-3c0-.6-.4-1-1-1s-1 .4-1 1v3H8c-.6 0-1 .4-1 1s.4 1 1 1zm24 0h8c.6 0 1-.4 1-1s-.4-1-1-1h-8c-.6 0-1 .4-1 1s.4 1 1 1z"></path>
</svg>
