<svg xmlns="http://www.w3.org/2000/svg" width="2730.662" height="2730.662" fill-rule="evenodd" clip-rule="evenodd" image-rendering="optimizeQuality" shape-rendering="geometricPrecision" text-rendering="geometricPrecision" viewBox="0 0 28444 28444" id="engine">
  <path d="M20039 7210l1722 0c186,0 337,151 337,337l0 4983 490 0 0 -659c0,-186 151,-337 337,-337l814 0c317,0 605,129 813,338 208,208 338,496 338,813l0 4491c0,317 -129,605 -338,813 -208,208 -496,338 -813,338l-814 0c-186,0 -337,-151 -337,-337l0 -659 -490 0 0 1882c0,104 -47,197 -121,258l-3177 3084c-69,68 -161,99 -250,95l-7121 -11c-102,0 -193,-45 -255,-117l-2859 -2988 -2892 15c-185,1 -336,-149 -337,-334l0 -1 -1 0 0 -2009 -827 0c-10,0 -20,0 -29,-1l0 1139c0,186 -151,337 -337,337 -186,0 -337,-151 -337,-337l0 -7075c0,-186 151,-337 337,-337 186,0 337,151 337,337l0 1139c10,-1 19,-1 29,-1l827 0 0 -1855c0,-186 151,-337 337,-337 12,0 24,1 36,2l3393 63 4233 -3003c59,-42 127,-62 195,-62l0 -1 1448 0 0 -742 -882 0c-186,0 -337,-151 -337,-337 0,-186 151,-337 337,-337l7075 0c186,0 337,151 337,337 0,186 -151,337 -337,337l-882 0 0 742zm3465 5240l0 4960 234 0c62,0 121,-25 165,-69 44,-44 69,-103 69,-165l0 -4491c0,-62 -25,-121 -69,-165 -44,-44 -103,-69 -165,-69l-234 0zm-8103 -5982l0 742 3964 0 0 -742 -3964 0zm-11171 6607l0 3456c10,-1 19,-1 29,-1l827 0 0 -3453 -827 0c-10,0 -20,0 -29,-1zm10169 157c589,81 1256,45 1195,502 -13,94 -63,174 -134,226l0 0 -4716 3450c-312,228 -693,-171 -468,-472l0 0 1888 -2527c-1977,-283 -1761,189 725,-4219 62,-109 175,-171 292,-171l0 -2 3682 0c295,0 467,368 217,595l-2681 2618zm8190 3424l0 -3453 -490 0 0 3453 490 0z"></path>
</svg>
