<svg xmlns="http://www.w3.org/2000/svg" fill-rule="evenodd" stroke-linejoin="round" stroke-miterlimit="2" clip-rule="evenodd" viewBox="0 0 267 267" id="horn">
  <path d="M112.5,162.5l50,0l0,-20.833l16.667,-0l-0,23.918c-0,7.501 -6.081,13.582 -13.582,13.582l-56.17,-0c-7.501,-0 -13.582,-6.081 -13.582,-13.582l0,-23.918l16.667,-0l-0,20.833Z"></path>
  <path d="M187.5,112.5l0,-8.333l37.5,-0l0,58.333l-37.5,0l0,-8.333l-85.452,-0c-7.589,-0 -14.327,4.856 -16.727,12.056l-8.481,25.444l-35.173,-0l-0,-116.667l35.173,0l8.481,25.444c2.4,7.2 9.138,12.056 16.727,12.056l85.452,0Zm16.667,33.333l4.166,0l0,-25c0,0 -4.166,0 -4.166,0l-0,8.334l-102.119,-0c-14.763,-0 -27.87,-9.447 -32.538,-23.453l-4.683,-14.047l-6.494,-0c0,-0 0,83.333 0,83.333l6.494,-0l4.683,-14.048c4.668,-14.005 17.775,-23.452 32.538,-23.452l102.119,-0l-0,8.333Z"></path>
</svg>
