<?xml version="1.0" encoding="utf-8"?>
<svg xmlns="http://www.w3.org/2000/svg" viewBox="374.145 234.442 92.05 82" width="92.05px" height="82px"><g id="warning" transform="matrix(1, 0, 0, 1, 0, -7.105427357601002e-15)"><path d="M 462.17 316.442 L 378.17 316.442 C 376.77 316.442 375.47 315.642 374.67 314.442 C 373.97 313.242 373.97 311.742 374.67 310.442 L 416.67 236.442 C 417.37 235.142 418.67 234.442 420.17 234.442 C 421.67 234.442 422.97 235.242 423.67 236.442 L 465.67 310.442 C 466.37 311.642 466.37 313.242 465.67 314.442 C 464.87 315.642 463.57 316.442 462.17 316.442 Z M 385.07 308.442 L 455.37 308.442 L 420.17 246.542 L 385.07 308.442 L 385.07 308.442 Z M 424.17 284.542 L 424.17 265.942 C 424.17 263.742 422.37 261.942 420.17 261.942 C 417.97 261.942 416.17 263.742 416.17 265.942 L 416.17 284.542 C 416.17 286.742 417.97 288.542 420.17 288.542 C 422.37 288.542 424.17 286.742 424.17 284.542 Z M 423.67 301.142 C 424.57 300.242 425.17 298.942 425.17 297.642 C 425.17 296.342 424.67 295.042 423.67 294.142 C 422.77 293.242 421.47 292.642 420.17 292.642 C 418.87 292.642 417.57 293.142 416.67 294.142 C 415.77 295.042 415.17 296.342 415.17 297.642 C 415.17 298.942 415.67 300.242 416.67 301.142 C 417.57 302.042 418.87 302.642 420.17 302.642 C 421.47 302.642 422.77 302.042 423.67 301.142 Z" style="fill: rgb(255, 255, 255);"/></g></svg>