<?xml version="1.0" encoding="utf-8"?>
<svg xmlns="http://www.w3.org/2000/svg" viewBox="279.5524 224.1642 62.0162 62.0156" width="62.0162px" height="62.0156px"><g id="brush" transform="matrix(1, 0, 0, 1, -109.60961151123047, -20.270269393920902)"><path d="M 397.392 287.9 C 395.853 287.933 394.855 286.287 395.596 284.938 C 395.695 284.757 395.822 284.592 395.972 284.45 L 401.652 278.77 C 402.741 277.681 404.601 278.179 405 279.667 C 405.185 280.358 404.988 281.094 404.482 281.6 L 398.802 287.28 C 398.434 287.667 397.926 287.89 397.392 287.9 Z M 410.392 299.9 C 408.853 299.933 407.855 298.287 408.596 296.938 C 408.695 296.757 408.822 296.592 408.972 296.45 L 412.652 292.77 C 413.741 291.681 415.601 292.179 416 293.667 C 416.185 294.358 415.988 295.094 415.482 295.6 L 411.802 299.28 C 411.434 299.667 410.926 299.89 410.392 299.9 Z M 403.682 294.19 C 402.142 294.191 401.179 292.525 401.948 291.191 C 402.034 291.041 402.14 290.903 402.262 290.78 L 411.042 282 C 412.185 280.968 414.016 281.56 414.338 283.066 C 414.473 283.696 414.296 284.353 413.862 284.83 L 405.092 293.61 C 404.717 293.982 404.21 294.19 403.682 294.19 Z" style="fill: rgb(255, 255, 255);"/><path d="M 415.932 306.45 C 415.402 306.448 414.895 306.235 414.522 305.86 L 389.752 281.09 C 389.376 280.717 389.164 280.209 389.162 279.68 C 389.162 279.147 389.374 278.636 389.752 278.26 L 405.232 262.78 C 406.321 261.691 408.181 262.189 408.58 263.677 C 408.765 264.368 408.568 265.104 408.062 265.61 L 393.992 279.68 L 415.932 301.62 L 430.002 287.55 C 431.091 286.461 432.951 286.959 433.35 288.447 C 433.535 289.138 433.338 289.874 432.832 290.38 L 417.352 305.86 C 416.976 306.238 416.465 306.45 415.932 306.45 Z" style="fill: rgb(255, 255, 255);"/><path d="M 431.422 290.97 C 430.889 290.97 430.378 290.758 430.002 290.38 L 405.232 265.61 C 404.45 264.829 404.45 263.561 405.232 262.78 L 410.572 257.45 C 412.965 255.062 416.839 255.062 419.232 257.45 L 424.162 262.32 L 438.372 246.45 C 440.728 243.844 444.791 243.752 447.262 246.25 L 449.372 248.35 C 451.861 250.826 451.765 254.884 449.162 257.24 L 433.292 271.5 L 438.162 276.38 C 440.55 278.773 440.55 282.647 438.162 285.04 L 432.822 290.38 C 432.451 290.753 431.948 290.965 431.422 290.97 Z M 409.472 264.19 L 431.472 286.19 L 435.392 282.26 C 436.216 281.429 436.216 280.09 435.392 279.26 L 429.022 272.89 C 428.634 272.504 428.421 271.977 428.432 271.43 C 428.447 270.878 428.689 270.357 429.102 269.99 L 446.502 254.32 C 446.936 253.911 447.176 253.336 447.162 252.74 C 447.176 252.157 446.952 251.594 446.542 251.18 L 444.432 249.07 C 443.57 248.213 442.168 248.25 441.352 249.15 L 425.682 266.56 C 425.315 266.972 424.794 267.215 424.242 267.23 C 423.695 267.241 423.167 267.028 422.782 266.64 L 416.412 260.27 C 415.582 259.446 414.242 259.446 413.412 260.27 L 409.472 264.19 Z" style="fill: rgb(255, 255, 255);"/></g></svg>