<?xml version="1.0" encoding="utf-8"?>
<svg xmlns="http://www.w3.org/2000/svg" viewBox="0 0 500 500">
  <path style="stroke: rgb(0, 0, 0); stroke-width: 0.481729mm;" d="M 174.219 196.85 L 174.219 206.958 L 195.47 225.108 C 210.076 237.584 216.9 243.349 217.296 243.548 C 217.962 243.883 218.824 243.954 219.577 243.737 C 219.834 243.664 236.088 234.813 255.697 224.07 L 291.35 204.537 L 291.377 200.103 L 291.404 195.669 L 292.4 195.669 L 293.397 195.669 L 293.324 196.059 C 293.284 196.273 293.229 215.983 293.201 239.859 L 293.152 283.271 L 233.011 283.271 L 172.87 283.271 L 172.87 235.076 C 172.87 208.569 172.901 186.85 172.939 186.812 C 172.977 186.774 173.281 186.743 173.614 186.743 L 174.219 186.743 L 174.219 196.85 Z"/>
</svg>